<?xml version="1.0" encoding="UTF-8" standalone="no"?>
<!-- Created with Inkscape (http://www.inkscape.org/) -->

<svg
   xmlns:dc="http://purl.org/dc/elements/1.1/"
   xmlns:cc="http://creativecommons.org/ns#"
   xmlns:rdf="http://www.w3.org/1999/02/22-rdf-syntax-ns#"
   xmlns:svg="http://www.w3.org/2000/svg"
   xmlns="http://www.w3.org/2000/svg"
   xmlns:sodipodi="http://sodipodi.sourceforge.net/DTD/sodipodi-0.dtd"
   xmlns:inkscape="http://www.inkscape.org/namespaces/inkscape"
   width="161.03466796875"
   height="157.0579986572266"
   viewBox="0 0 42.6070882530398 41.55492998560955"
   version="1.1"
   id="svg1224"
   inkscape:version="0.92.2 5c3e80d, 2017-08-06"
   sodipodi:docname="github.svg">
  <defs
     id="defs1218" />
  <sodipodi:namedview
     id="base"
     pagecolor="#ffffff"
     bordercolor="#666666"
     borderopacity="1.0"
     inkscape:pageopacity="0.0"
     inkscape:pageshadow="2"
     inkscape:zoom="1.0650390625"
     inkscape:cx="-27.44525606699705"
     inkscape:cy="-179.2813591230434"
     inkscape:document-units="mm"
     inkscape:current-layer="layer1"
     showgrid="false"
     units="px"
     fit-margin-top="0"
     fit-margin-left="0"
     fit-margin-right="0"
     fit-margin-bottom="0"
     inkscape:window-width="1920"
     inkscape:window-height="1007"
     inkscape:window-x="0"
     inkscape:window-y="34"
     inkscape:window-maximized="1" />
  <metadata
     id="metadata1221">
    <rdf:RDF>
      <cc:Work
         rdf:about="">
        <dc:format>image/svg+xml</dc:format>
        <dc:type
           rdf:resource="http://purl.org/dc/dcmitype/StillImage" />
        <dc:title></dc:title>
      </cc:Work>
    </rdf:RDF>
  </metadata>
  <g
     inkscape:label="Layer 1"
     inkscape:groupmode="layer"
     id="layer1"
     transform="translate(-68.37822094463804,-59.84354025475072)">
    <g
       id="g1191"
       transform="matrix(0.3527777777777776,0,0,-0.3527777777777776,-34.00522794425078,233.9586705325284)">
      <g
         transform="translate(350.6088,493.5547)"
         id="g26">
        <path
           inkscape:connector-curvature="0"
           id="path28"
           style="fill:#1b1817;fill-rule:evenodd"
           d="m 0,0 c -33.347,0 -60.388,-27.035 -60.388,-60.388 0,-26.67999999999998 17.303,-49.316 41.297,-57.301 3.018,-0.559 4.126,1.31 4.126,2.905 0,1.439 -0.056,6.197 -0.082,11.243 -16.8,-3.653 -20.34500000000001,7.12499999999999 -20.34500000000001,7.12499999999999 -2.747,6.979 -6.70499999999999,8.83600000000003 -6.70499999999999,8.83600000000003 C -47.576,-83.83199999999999 -41.684,-83.909 -41.684,-83.909 c 6.06399999999999,-0.42599999999999 9.257,-6.22399999999999 9.257,-6.22399999999999 5.386,-9.23100000000001 14.127,-6.562 17.573,-5.01899999999999 0.543,3.90199999999999 2.107,6.56699999999999 3.834,8.075 -13.413,1.52599999999998 -27.513,6.705 -27.513,29.84399999999995 C -38.533,-50.641 -36.174,-45.253 -32.31099999999999,-41.024 -32.938,-39.503 -35.005,-33.361 -31.725,-25.043 c 0,0 5.071,1.622 16.61,-6.191 4.817,1.338 9.982999999999972,2.009 15.115,2.033 5.131999999999997,-0.024 10.302,-0.695 15.128,-2.033 11.52599999999999,7.813 16.58999999999999,6.191 16.58999999999999,6.191 C 35.005,-33.361 32.938,-39.503 32.31099999999999,-41.024 36.183,-45.253 38.52500000000001,-50.641 38.52500000000001,-57.23300000000001 38.52500000000001,-80.42799999999998 24.398,-85.534 10.951,-87.02899999999999 13.117,-88.903 15.047,-92.57799999999997 15.047,-98.212 c 0,-8.08 -0.069,-14.583 -0.069,-16.572 0,-1.608 1.086,-3.49 4.147,-2.898 C 43.107,-109.688 60.388,-87.06 60.388,-60.388 60.388,-27.035 33.35099999999999,0 0,0" />
      </g>
      <g
         transform="translate(313.0932,406.8515)"
         id="g30">
        <path
           inkscape:connector-curvature="0"
           id="path32"
           style="fill:#1b1817"
           d="M 0,0 C -0.133,-0.3010000000000001 -0.6049999999999996,-0.3910000000000001 -1.035,-0.185 -1.474,0.013 -1.719,0.422 -1.577,0.7229999999999997 -1.447,1.031 -0.975,1.117 -0.537,0.9109999999999999 -0.099,0.7139999999999997 0.151,0.3010000000000001 0,0" />
      </g>
      <g
         transform="translate(315.5395,404.123)"
         id="g34">
        <path
           inkscape:connector-curvature="0"
           id="path36"
           style="fill:#1b1817"
           d="M 0,0 C -0.288,-0.267 -0.8520000000000001,-0.143 -1.233,0.279 -1.629,0.7 -1.702,1.264 -1.41,1.534 -1.113,1.801 -0.5669999999999999,1.676 -0.172,1.255 0.2240000000000001,0.8289999999999999 0.3010000000000001,0.271 0,0" />
      </g>
      <g
         transform="translate(317.9204,400.6455)"
         id="g38">
        <path
           inkscape:connector-curvature="0"
           id="path40"
           style="fill:#1b1817"
           d="M 0,0 C -0.3700000000000001,-0.258 -0.9759999999999998,-0.017 -1.35,0.52 -1.72,1.058 -1.72,1.702 -1.341,1.96 -0.9670000000000001,2.218 -0.3700000000000001,1.985 0.009,1.453 0.3780000000000001,0.907 0.3780000000000001,0.263 0,0" />
      </g>
      <g
         transform="translate(321.1821,397.2850999999999)"
         id="g42">
        <path
           inkscape:connector-curvature="0"
           id="path44"
           style="fill:#1b1817"
           d="M 0,0 C -0.3310000000000001,-0.3650000000000001 -1.036,-0.267 -1.552,0.232 -2.08,0.7179999999999997 -2.227,1.409 -1.896,1.774 -1.56,2.14 -0.8510000000000001,2.037 -0.3310000000000001,1.543 0.193,1.057 0.352,0.3610000000000001 0,0" />
      </g>
      <g
         transform="translate(325.6821,395.334)"
         id="g46">
        <path
           inkscape:connector-curvature="0"
           id="path48"
           style="fill:#1b1817"
           d="M 0,0 C -0.147,-0.473 -0.825,-0.687 -1.509,-0.4860000000000001 -2.192,-0.279 -2.639,0.274 -2.501,0.7520000000000001 -2.358999999999999,1.228 -1.677,1.452 -0.9879999999999999,1.237 -0.306,1.031 0.142,0.481 0,0" />
      </g>
      <g
         transform="translate(330.6245,394.9726)"
         id="g50">
        <path
           inkscape:connector-curvature="0"
           id="path52"
           style="fill:#1b1817"
           d="M 0,0 C 0.017,-0.4980000000000001 -0.5629999999999999,-0.9109999999999999 -1.281,-0.9200000000000001 -2.003,-0.9360000000000001 -2.588,-0.533 -2.596,-0.043 -2.596,0.46 -2.028,0.8680000000000001 -1.307,0.881 c 0.718,0.014 1.307,-0.3869999999999999 1.307,-0.881" />
      </g>
      <g
         transform="translate(335.2230999999999,395.7549)"
         id="g54">
        <path
           inkscape:connector-curvature="0"
           id="path56"
           style="fill:#1b1817"
           d="M 0,0 C 0.086,-0.4850000000000001 -0.413,-0.9839999999999998 -1.126,-1.117 -1.827,-1.246 -2.475999999999999,-0.9450000000000001 -2.565,-0.464 -2.652,0.034 -2.145,0.533 -1.444,0.662 -0.7299999999999996,0.786 -0.091,0.4940000000000001 0,0" />
      </g>
    </g>
  </g>
</svg>
