<?xml version="1.0" encoding="UTF-8" standalone="no"?>
<!-- Created with Inkscape (http://www.inkscape.org/) -->

<svg
   xmlns:dc="http://purl.org/dc/elements/1.1/"
   xmlns:cc="http://creativecommons.org/ns#"
   xmlns:rdf="http://www.w3.org/1999/02/22-rdf-syntax-ns#"
   xmlns:svg="http://www.w3.org/2000/svg"
   xmlns="http://www.w3.org/2000/svg"
   xmlns:sodipodi="http://sodipodi.sourceforge.net/DTD/sodipodi-0.dtd"
   xmlns:inkscape="http://www.inkscape.org/namespaces/inkscape"
   version="1.1"
   id="svg2"
   xml:space="preserve"
   width="189.4213409423828"
   height="48"
   viewBox="0 0 189.4213409423828 48"
   sodipodi:docname="linkedin.svg"
   inkscape:version="0.92.2 5c3e80d, 2017-08-06"><metadata
     id="metadata8"><rdf:RDF><cc:Work
         rdf:about=""><dc:format>image/svg+xml</dc:format><dc:type
           rdf:resource="http://purl.org/dc/dcmitype/StillImage" /><dc:title></dc:title></cc:Work></rdf:RDF></metadata><defs
     id="defs6" /><sodipodi:namedview
     pagecolor="#ffffff"
     bordercolor="#666666"
     borderopacity="1"
     objecttolerance="10"
     gridtolerance="10"
     guidetolerance="10"
     inkscape:pageopacity="0"
     inkscape:pageshadow="2"
     inkscape:window-width="1920"
     inkscape:window-height="1007"
     id="namedview4"
     showgrid="false"
     fit-margin-top="0"
     fit-margin-left="0"
     fit-margin-right="0"
     fit-margin-bottom="0"
     inkscape:zoom="6.938682611761771"
     inkscape:cx="98.89333343505859"
     inkscape:cy="24.00000000000001"
     inkscape:window-x="0"
     inkscape:window-y="34"
     inkscape:window-maximized="1"
     inkscape:current-layer="g10" /><g
     id="g10"
     inkscape:groupmode="layer"
     inkscape:label="ink_ext_XXXXXX"
     transform="matrix(1.333333333333333,0,0,-1.333333333333333,0,47.99999999999999)"><g
       id="g12"
       transform="scale(0.1)"><path
         d="M 0,306.758 H 55.5234 V 104.492 H 158.34 v -51.2498 H 0 V 306.758"
         style="fill:#231f20"
         id="path18"
         inkscape:connector-curvature="0" /><path
         d="m 209.563,310.52 c 17.085,0 30.96,-13.875 30.96,-30.969 0,-17.09 -13.875,-30.922 -30.96,-30.922 -17.079,0 -30.95,13.832 -30.95,30.922 0,17.094 13.871,30.969 30.95,30.969 m -26.692,-85.403 h 53.375 V 53.32029999999998 H 182.871 V 225.117"
         style="fill:#231f20"
         id="path20"
         inkscape:connector-curvature="0" /><path
         d="m 459.371,306.758 h 53.3319999999998 V 155.254 L 573.168,225.195 h 65.406 L 568.586,145.652 637.109,53.24220000000001 H 570.0509999999999 L 513.398,138.176 h -0.6950000000003 V 53.24220000000001 H 459.371 V 306.758"
         style="fill:#231f20"
         id="path22"
         inkscape:connector-curvature="0" /><path
         d="m 265.766,225.078 h 51.238 v -23.469 h 0.711 c 7.109,13.508 24.5470000000001,27.746 50.5229999999999,27.746 C 422.324,229.355 432.285,193.77 432.285,147.52 v -94.1997 H 378.91 V 136.848 c 0,19.922 -0.363,45.531 -27.762,45.531 -27.75,0 -32.007,-21.695 -32.007,-44.109 v -84.9497 H 265.766 V 225.078"
         style="fill:#231f20"
         id="path24"
         inkscape:connector-curvature="0" /><path
         d="M 796.113,83.0664 C 779.004,61.34770000000001 750.918,48.8867 723.1639999999996,48.8867 669.7890000000001,48.8867 627.09,84.47269999999997 627.09,139.641 c 0,55.129 42.6990000000001,90.718 96.0739999999996,90.718 C 772.9959999999997,230.359 804.277,194.77 804.277,139.641 V 122.922 H 680.4649999999999 C 684.7029999999997,102.629 700.043,89.46480000000001 720.6599999999998,89.46480000000001 738.113,89.46480000000001 749.8279999999997,98.3516 758.73,110.449 Z M 750.918,159.18 c 0.3439999999999,17.8 -13.5310000000001,32.738 -32.7660000000001,32.738 -23.4639999999998,0 -36.2610000000001,-16.016 -37.687,-32.738 H 750.918"
         style="fill:#231f20"
         id="path26"
         inkscape:connector-curvature="0" /><path
         d="M 1007.3,53.3398 H 958.176 V 76.13279999999997 H 957.48 C 949.258,63.66020000000001 928.6449999999997,49.082 904.4529999999997,49.082 853.191,49.082 819.3949999999997,86.0742 819.3949999999997,138.367 c 0,48.059 29.9020000000003,92.164 79.0030000000003,92.164 22.082,0 42.696,-6.027 54.8049999999997,-22.754 h 0.692 v 98.981 H 1007.3 Z M 915.4689999999999,183.574 c -26.668,0 -42.7030000000001,-17.804 -42.7030000000001,-43.761 C 872.7659999999998,113.816 888.8009999999999,96.0352 915.4689999999999,96.0352 942.1799999999999,96.0352 958.176,113.816 958.176,139.813 c 0,25.957 -15.9960000000001,43.761 -42.7070000000001,43.761"
         style="fill:#231f20"
         id="path28"
         inkscape:connector-curvature="0" /><path
         d="m 1367.44,53.24220000000001 h -53.38 V 136.785 c 0,19.926 -0.35,45.555 -27.75,45.555 -27.78,0 -32.02,-21.715 -32.02,-44.125 V 53.24220000000001 h -53.33 V 225.039 h 51.18 v -23.484 h 0.73 c 7.12,13.504 24.55,27.746 50.53,27.746 54.05,0 64.04,-35.571 64.04,-81.84 z M 1140.75,248.512 c -17.15,0 -30.97,13.871 -30.97,30.965 0,17.089 13.82,30.964 30.97,30.964 17.08,0 30.95,-13.875 30.95,-30.964 0,-17.094 -13.87,-30.965 -30.95,-30.965 z m 26.71,-195.26979999999997 h -53.44 V 225.039 h 53.44 z M 1394.03,360 h -306.8 c -14.65,0 -26.56,-11.621 -26.56,-25.957 V 25.9766 C 1060.67,11.6406 1072.58,0 1087.23,0 h 306.8 c 14.69,0 26.63,11.6406 26.63,25.9766 V 334.043 c 0,14.336 -11.94,25.957 -26.63,25.957"
         style="fill:#231f20"
         id="path30"
         inkscape:connector-curvature="0" /></g></g></svg>